<?xml version="1.0" encoding="UTF-8" standalone="no"?>
<svg width="41px" height="42px" viewBox="0 0 41 42" version="1.1" xmlns="http://www.w3.org/2000/svg" xmlns:xlink="http://www.w3.org/1999/xlink">
    <!-- Generator: Sketch 41.1 (35376) - http://www.bohemiancoding.com/sketch -->
    <title>Group</title>
    <desc>Created with Sketch.</desc>
    <defs></defs>
    <g id="Page-1" stroke="none" stroke-width="1" fill="none" fill-rule="evenodd">
        <g id="Group">
            <g id="descarga" fill="#F5C400">
                <path d="M14.257,14.479 L13.741,14.479 L14.516,12.26 L15.152,12.26 C15.62,12.26 15.732,12.524 15.522,13.124 L15.358,13.592 C15.125,14.261 14.75,14.479 14.257,14.479 Z M21.426,22.048 C21.006,22.048 20.662,22.277 20.452,22.876 L18.867,27.408 C18.657,28.009 18.842,28.236 19.262,28.236 C19.682,28.236 20.025,28.007 20.235,27.408 L21.82,22.876 C22.029,22.277 21.846,22.048 21.426,22.048 Z M14.15,17.429 L14.405,16.698 C14.678,15.918 14.509,15.678 13.91,15.678 L13.322,15.678 L12.421,18.257 L13.177,18.257 C13.62,18.255 13.931,18.051 14.15,17.429 Z M40.521,24.852 C41.014,25.61 41.137,26.55 40.858,27.413 C40.58,28.274 39.926,28.962 39.082,29.286 L34.729,30.959 L34.484,35.614 C34.436,36.518 33.983,37.352 33.252,37.885 C32.52,38.418 31.586,38.59 30.713,38.357 L26.209,37.15 L23.273,40.773 C22.704,41.476 21.847,41.884 20.942,41.884 C20.037,41.884 19.181,41.476 18.611,40.773 L15.676,37.15 L11.173,38.357 C10.298,38.59 9.366,38.419 8.633,37.885 C7.901,37.353 7.448,36.519 7.4,35.614 L7.155,30.959 L2.803,29.286 C1.958,28.963 1.305,28.274 1.026,27.413 C0.746,26.553 0.87,25.612 1.363,24.852 L3.902,20.941 L1.363,17.031 C0.87,16.272 0.746,15.331 1.026,14.47 C1.305,13.609 1.958,12.921 2.803,12.596 L7.155,10.924 L7.401,6.27 C7.448,5.366 7.901,4.533 8.633,4 C9.365,3.469 10.3,3.297 11.172,3.529 L15.675,4.734 L18.611,1.111 C19.181,0.408 20.037,0 20.942,0 C21.847,0 22.704,0.408 23.273,1.111 L26.209,4.734 L30.713,3.528 C31.588,3.295 32.521,3.467 33.252,3.999 C33.982,4.531 34.437,5.365 34.483,6.269 L34.728,10.924 L39.082,12.596 C39.926,12.92 40.58,13.609 40.857,14.47 C41.137,15.33 41.013,16.271 40.52,17.031 L37.981,20.941 L40.521,24.852 Z M27.969,12.258 L25.451,19.454 L26.77,19.454 L29.287,12.258 L30.668,12.258 L31.086,11.059 L27.01,11.059 L26.59,12.258 L27.969,12.258 L27.969,12.258 Z M22.033,13.074 C21.195,15.472 23.659,15.796 23.055,17.523 C22.845,18.123 22.505,18.339 22.085,18.339 C21.665,18.339 21.478,18.123 21.688,17.523 L21.896,16.923 L20.649,16.923 L20.469,17.439 C20,18.782 20.403,19.549 21.698,19.549 C22.993,19.549 23.933,18.781 24.403,17.439 C25.244,15.04 22.777,14.716 23.381,12.989 C23.592,12.389 23.912,12.161 24.33,12.161 C24.75,12.161 24.91,12.39 24.699,12.989 L24.58,13.337 L25.825,13.337 L25.92,13.073 C26.39,11.73 25.998,10.962 24.715,10.962 C23.432,10.962 22.504,11.732 22.033,13.074 Z M18.49,11.06 L15.554,19.456 L19.152,19.456 L19.571,18.257 L17.292,18.257 L18.152,15.798 L19.963,15.798 L20.382,14.599 L18.571,14.599 L19.388,12.26 L21.667,12.26 L22.087,11.061 L18.49,11.06 L18.49,11.06 Z M10.682,19.456 L12.757,19.456 C14.076,19.456 15.003,18.76 15.456,17.465 L15.695,16.781 C16.006,15.893 15.952,15.258 15.341,14.982 C16.025,14.706 16.482,14.154 16.784,13.291 L16.888,12.991 C17.341,11.696 16.976,11.06 15.609,11.06 L13.618,11.06 L10.682,19.456 Z M11.756,27.326 L12.146,26.211 L10.898,26.211 L10.479,27.41 C10.269,28.01 9.93,28.226 9.51,28.226 C9.091,28.226 8.902,28.008 9.112,27.41 L10.697,22.877 C10.907,22.277 11.251,22.049 11.671,22.049 C12.091,22.049 12.275,22.278 12.065,22.877 L11.751,23.775 L12.999,23.775 L13.284,22.961 C13.754,21.617 13.35,20.85 12.055,20.85 C10.76,20.85 9.819,21.617 9.349,22.961 L7.823,27.326 C7.353,28.67 7.757,29.437 9.052,29.437 C10.346,29.438 11.287,28.67 11.756,27.326 Z M16.019,29.34 L18.955,20.944 L17.612,20.944 L16.354,24.542 L14.854,24.542 L16.112,20.944 L14.793,20.944 L11.857,29.34 L13.176,29.34 L14.434,25.74 L15.934,25.74 L14.676,29.34 L16.019,29.34 Z M21.585,27.326 L23.109,22.961 C23.581,21.617 23.14,20.85 21.843,20.85 C20.549,20.85 19.572,21.617 19.103,22.961 L17.577,27.326 C17.107,28.67 17.547,29.437 18.842,29.437 C20.137,29.437 21.114,28.67 21.585,27.326 Z M25.987,20.944 L24.669,20.944 L21.733,29.34 L23.051,29.34 L25.987,20.944 Z M28.447,27.326 C29.286,24.928 26.821,24.603 27.426,22.877 C27.635,22.277 27.955,22.049 28.373,22.049 C28.793,22.049 28.953,22.278 28.742,22.877 L28.623,23.225 L29.869,23.225 L29.963,22.961 C30.433,21.617 30.041,20.85 28.758,20.85 C27.475,20.85 26.547,21.617 26.075,22.961 C25.236,25.359 27.702,25.684 27.097,27.41 C26.887,28.01 26.547,28.226 26.127,28.226 C25.709,28.226 25.52,28.008 25.73,27.41 L25.939,26.81 L24.692,26.81 L24.512,27.326 C24.041,28.67 24.445,29.437 25.741,29.437 C27.037,29.437 27.978,28.67 28.447,27.326 Z M35.034,20.944 L31.435,20.944 L28.5,29.34 L32.099,29.34 L32.518,28.143 L30.24,28.143 L31.099,25.684 L32.91,25.684 L33.33,24.485 L31.518,24.485 L32.336,22.147 L34.612,22.147 L35.034,20.944 Z" id="Shape"></path>
            </g>
            <polygon id="Path-2" fill="#F5C400" points="10.4864704 8.64195736 7.11893169 19.0125727 6.07869428 27.1294331 8.25778828 30.1387112 16.3506904 33.3580426 27.5754482 31.2775678 32.8568677 29.3519864 34.6336846 25.7977955 35.9213057 19.6627907 31.4149104 8.68541667"></polygon>
            <path d="M14.550293,18.4228516 L14.6914062,18.4228516 C14.8878591,18.4228516 15.0469558,18.4000246 15.1687012,18.3543701 C15.2904466,18.3087156 15.3831377,18.2305507 15.4467773,18.119873 C15.510417,18.0091954 15.5526122,17.8839932 15.5733643,17.7442627 C15.5941163,17.6045322 15.6044922,17.4170747 15.6044922,17.1818848 C15.6044922,16.7917461 15.5360114,16.4887706 15.3990479,16.2729492 C15.2620843,16.0571278 15.028973,15.9492188 14.699707,15.9492188 L14.550293,15.9492188 L14.550293,18.4228516 Z M14.5419922,14.9572754 L14.7993164,14.9572754 C14.9376635,14.9572754 15.0538732,14.9309898 15.1479492,14.878418 C15.2420252,14.8258461 15.3132729,14.7490646 15.3616943,14.6480713 C15.4101158,14.5470779 15.4440103,14.4384771 15.4633789,14.3222656 C15.4827475,14.2060541 15.4924316,14.0690926 15.4924316,13.911377 C15.4924316,13.7868646 15.4834392,13.6775721 15.4654541,13.5834961 C15.447469,13.4894201 15.427409,13.4112552 15.4052734,13.348999 C15.3831379,13.2867429 15.3457848,13.2341718 15.2932129,13.1912842 C15.240641,13.1483966 15.1942954,13.1165773 15.1541748,13.0958252 C15.1140542,13.0750731 15.0531824,13.0598552 14.9715576,13.0501709 C14.8899329,13.0404866 14.824219,13.0349528 14.7744141,13.0335693 C14.7246091,13.0321859 14.6471359,13.0314941 14.5419922,13.0314941 L14.5419922,14.9572754 Z M13.0395508,19.489502 L13.0395508,12.0187988 L14.5793457,12.0187988 C14.8560398,12.0187988 15.1002187,12.0333251 15.3118896,12.0623779 C15.5235606,12.0914308 15.7310781,12.1481522 15.9344482,12.2325439 C16.1378184,12.3169356 16.3052158,12.4296868 16.4366455,12.5708008 C16.5680752,12.7119148 16.6732174,12.8979888 16.7520752,13.1290283 C16.830933,13.3600679 16.8703613,13.6332992 16.8703613,13.9487305 C16.8703613,14.3388691 16.7783619,14.645995 16.5943604,14.8701172 C16.4103588,15.0942394 16.1246764,15.271321 15.7373047,15.4013672 C16.6254927,15.6171886 17.0695801,16.2452747 17.0695801,17.2856445 C17.0695801,18.0354855 16.8897316,18.5902489 16.5300293,18.9499512 C16.170327,19.3096535 15.6210974,19.489502 14.8823242,19.489502 L13.0395508,19.489502 Z M17.7709961,19.489502 L17.7709961,12.0187988 L20.8879395,12.0187988 L20.8879395,13.0563965 L19.2817383,13.0563965 L19.2817383,15.0900879 L20.4189453,15.0900879 L20.4189453,16.1525879 L19.2817383,16.1525879 L19.2817383,18.4519043 L20.8879395,18.4519043 L20.8879395,19.489502 L17.7709961,19.489502 Z M21.170166,17.3520508 L22.7016602,17.057373 C22.7016602,17.2095548 22.7044271,17.3437494 22.7099609,17.4599609 C22.7154948,17.5761725 22.730021,17.7027581 22.75354,17.8397217 C22.777059,17.9766853 22.8088784,18.0887447 22.848999,18.1759033 C22.8891197,18.263062 22.9458411,18.3363848 23.019165,18.395874 C23.092489,18.4553633 23.1789546,18.4851074 23.2785645,18.4851074 C23.5773941,18.4851074 23.7268066,18.2941914 23.7268066,17.9123535 C23.7268066,17.3894017 23.4321319,16.8692246 22.8427734,16.3518066 L22.3737793,15.9533691 C22.2243645,15.8288568 22.1053878,15.7250981 22.0168457,15.6420898 C21.9283036,15.5590816 21.8238531,15.4470222 21.7034912,15.3059082 C21.5831293,15.1647942 21.4890547,15.0285244 21.4212646,14.8970947 C21.3534746,14.765665 21.2953697,14.60726 21.2469482,14.421875 C21.1985268,14.23649 21.1743164,14.0400401 21.1743164,13.8325195 C21.1743164,13.2265595 21.3666159,12.7471941 21.7512207,12.3944092 C22.1358255,12.0416242 22.6463184,11.8652344 23.2827148,11.8652344 C23.8112006,11.8652344 24.2608217,12.0533835 24.6315918,12.4296875 C25.0023619,12.8059915 25.1877441,13.259763 25.1877441,13.7910156 L25.1835938,13.8449707 L25.1835938,13.9694824 L23.6230469,14.1853027 C23.6230469,14.1548664 23.625122,14.1071374 23.6292725,14.0421143 C23.6334229,13.9770911 23.635498,13.9238283 23.635498,13.8823242 C23.635498,13.7827143 23.6285808,13.6872563 23.6147461,13.5959473 C23.6009114,13.5046382 23.5780845,13.4133305 23.5462646,13.3220215 C23.5144448,13.2307124 23.4653324,13.1580813 23.3989258,13.104126 C23.3325192,13.0501706 23.2522791,13.0231934 23.1582031,13.0231934 C22.9921867,13.0231934 22.8676762,13.0882155 22.784668,13.2182617 C22.7016597,13.3483079 22.6601562,13.5018709 22.6601562,13.6789551 C22.6601562,13.8339038 22.6843666,13.979166 22.7327881,14.1147461 C22.7812096,14.2503262 22.8545324,14.3769118 22.9527588,14.4945068 C23.0509852,14.6121018 23.1416011,14.709635 23.2246094,14.7871094 C23.3076176,14.8645837 23.4182936,14.95935 23.5566406,15.0714111 C23.6949877,15.1834722 23.7932126,15.2657875 23.8513184,15.3183594 C24.0643728,15.5065114 24.2442213,15.6829012 24.3908691,15.8475342 C24.537517,16.0121672 24.675862,16.1982411 24.8059082,16.4057617 C24.9359544,16.6132823 25.0334876,16.8374011 25.0985107,17.078125 C25.1635339,17.3188489 25.1960449,17.5789374 25.1960449,17.8583984 C25.1960449,18.3813503 25.0092792,18.809528 24.6357422,19.1429443 C24.2622052,19.4763607 23.8084337,19.6430664 23.2744141,19.6430664 C22.9285464,19.6430664 22.6214206,19.5794277 22.3530273,19.4521484 C22.0846341,19.3248692 21.8681242,19.1519379 21.7034912,18.9333496 C21.5388582,18.7147613 21.4122726,18.4726576 21.3237305,18.2070312 C21.2351884,17.9414049 21.1840007,17.6564143 21.170166,17.3520508 Z M26.5075684,19.489502 L26.5075684,13.1477051 L25.4118652,13.1477051 L25.4118652,12.0187988 L29.0932617,12.0187988 L29.0932617,13.1477051 L28.0183105,13.1477051 L28.0183105,19.489502 L26.5075684,19.489502 Z M8.28735352,25.4951172 L8.28735352,23.0214844 C8.28735352,21.2561761 9.00951426,20.3735352 10.4538574,20.3735352 C10.7582209,20.3735352 11.0286853,20.4143469 11.2652588,20.4959717 C11.5018322,20.5775964 11.7003573,20.6903476 11.8608398,20.8342285 C12.0213224,20.9781094 12.1534419,21.155191 12.2572021,21.3654785 C12.3609624,21.575766 12.4356687,21.8040352 12.4813232,22.050293 C12.5269778,22.2965507 12.5498047,22.5677069 12.5498047,22.8637695 L12.5498047,23.5070801 L11.0639648,23.5070801 L11.0639648,22.8181152 C11.0639648,22.6825351 11.0611979,22.5656336 11.0556641,22.4674072 C11.0501302,22.3691808 11.035604,22.2571214 11.012085,22.1312256 C10.988566,22.0053298 10.9567466,21.9029545 10.916626,21.8240967 C10.8765053,21.7452389 10.817017,21.6781416 10.7381592,21.6228027 C10.6593014,21.5674639 10.5645351,21.5397949 10.4538574,21.5397949 C10.0166808,21.5397949 9.7980957,21.9077925 9.7980957,22.6437988 L9.7980957,25.8686523 C9.7980957,26.6018917 10.0166808,26.9685059 10.4538574,26.9685059 C10.5839036,26.9685059 10.6931962,26.9311527 10.7817383,26.8564453 C10.8702804,26.7817379 10.9339191,26.675904 10.9726562,26.5389404 C11.0113934,26.4019769 11.037679,26.2677822 11.0515137,26.1363525 C11.0653484,26.0049228 11.0722656,25.8548186 11.0722656,25.6860352 L11.0722656,24.9182129 L12.5498047,24.9182129 L12.5498047,25.5490723 C12.5442708,25.8340672 12.5207522,26.0969226 12.479248,26.3376465 C12.4377439,26.5783703 12.367188,26.8121733 12.2675781,27.0390625 C12.1679683,27.2659517 12.0413826,27.4575594 11.8878174,27.6138916 C11.7342522,27.7702238 11.5357271,27.8961177 11.2922363,27.9915771 C11.0487455,28.0870366 10.7692887,28.1347656 10.4538574,28.1347656 C10.1301253,28.1347656 9.84305952,28.0884201 9.59265137,27.9957275 C9.34224321,27.903035 9.13610921,27.7785245 8.97424316,27.6221924 C8.81237712,27.4658602 8.67887422,27.2735607 8.57373047,27.0452881 C8.46858671,26.8170155 8.39457215,26.5769869 8.35168457,26.3251953 C8.30879699,26.0734037 8.28735352,25.7967137 8.28735352,25.4951172 Z M13.2553711,27.989502 L13.2553711,20.5187988 L14.7661133,20.5187988 L14.7661133,23.5817871 L15.8493652,23.5817871 L15.8493652,20.5187988 L17.3684082,20.5187988 L17.3684082,27.989502 L15.8493652,27.989502 L15.8493652,24.6567383 L14.7661133,24.6567383 L14.7661133,27.989502 L13.2553711,27.989502 Z M18.1611328,25.5324707 L18.1611328,23.0214844 C18.1611328,21.2561761 18.8888274,20.3735352 20.3442383,20.3735352 C21.8024161,20.3735352 22.5314941,21.2561761 22.5314941,23.0214844 L22.5314941,25.4951172 C22.5314941,25.7939468 22.5093589,26.069945 22.4650879,26.3231201 C22.4208168,26.5762952 22.3454188,26.8163237 22.2388916,27.0432129 C22.1323644,27.270102 21.9967863,27.4630933 21.8321533,27.6221924 C21.6675203,27.7812915 21.4593112,27.9064937 21.2075195,27.9978027 C20.9557279,28.0891118 20.6679704,28.1347656 20.3442383,28.1347656 C20.0232731,28.1347656 19.736899,28.0898035 19.4851074,27.9998779 C19.2333158,27.9099523 19.0257983,27.7882088 18.8625488,27.6346436 C18.6992993,27.4810783 18.564413,27.2929292 18.4578857,27.0701904 C18.3513585,26.8474517 18.2752688,26.6101901 18.2296143,26.3583984 C18.1839597,26.1066068 18.1611328,25.8313003 18.1611328,25.5324707 Z M21.020752,25.8728027 L21.020752,22.6437988 C21.020752,21.9077925 20.7952497,21.5397949 20.3442383,21.5397949 C20.2086582,21.5397949 20.0938319,21.5736894 19.9997559,21.6414795 C19.9056799,21.7092695 19.8365074,21.8019607 19.7922363,21.9195557 C19.7479653,22.0371507 19.7168377,22.1533604 19.6988525,22.2681885 C19.6808674,22.3830165 19.671875,22.5082187 19.671875,22.6437988 L19.671875,25.8728027 C19.671875,26.6060421 19.8959939,26.9726562 20.3442383,26.9726562 C20.7952497,26.9726562 21.020752,26.6060421 21.020752,25.8728027 Z M23.3242188,27.989502 L23.3242188,20.5187988 L24.8349609,20.5187988 L24.8349609,27.989502 L23.3242188,27.989502 Z M25.6276855,25.4951172 L25.6276855,23.0214844 C25.6276855,21.2561761 26.3498463,20.3735352 27.7941895,20.3735352 C28.098553,20.3735352 28.3690174,20.4143469 28.6055908,20.4959717 C28.8421643,20.5775964 29.0406893,20.6903476 29.2011719,20.8342285 C29.3616544,20.9781094 29.4937739,21.155191 29.5975342,21.3654785 C29.7012945,21.575766 29.7760007,21.8040352 29.8216553,22.050293 C29.8673098,22.2965507 29.8901367,22.5677069 29.8901367,22.8637695 L29.8901367,23.5070801 L28.4042969,23.5070801 L28.4042969,22.8181152 C28.4042969,22.6825351 28.40153,22.5656336 28.3959961,22.4674072 C28.3904622,22.3691808 28.375936,22.2571214 28.352417,22.1312256 C28.328898,22.0053298 28.2970787,21.9029545 28.256958,21.8240967 C28.2168374,21.7452389 28.157349,21.6781416 28.0784912,21.6228027 C27.9996334,21.5674639 27.9048671,21.5397949 27.7941895,21.5397949 C27.3570128,21.5397949 27.1384277,21.9077925 27.1384277,22.6437988 L27.1384277,25.8686523 C27.1384277,26.6018917 27.3570128,26.9685059 27.7941895,26.9685059 C27.9242357,26.9685059 28.0335282,26.9311527 28.1220703,26.8564453 C28.2106124,26.7817379 28.2742511,26.675904 28.3129883,26.5389404 C28.3517255,26.4019769 28.378011,26.2677822 28.3918457,26.1363525 C28.4056804,26.0049228 28.4125977,25.8548186 28.4125977,25.6860352 L28.4125977,24.9182129 L29.8901367,24.9182129 L29.8901367,25.5490723 C29.8846028,25.8340672 29.8610842,26.0969226 29.8195801,26.3376465 C29.778076,26.5783703 29.70752,26.8121733 29.6079102,27.0390625 C29.5083003,27.2659517 29.3817146,27.4575594 29.2281494,27.6138916 C29.0745842,27.7702238 28.8760592,27.8961177 28.6325684,27.9915771 C28.3890776,28.0870366 28.1096207,28.1347656 27.7941895,28.1347656 C27.4704574,28.1347656 27.1833916,28.0884201 26.9329834,27.9957275 C26.6825752,27.903035 26.4764412,27.7785245 26.3145752,27.6221924 C26.1527092,27.4658602 26.0192063,27.2735607 25.9140625,27.0452881 C25.8089187,26.8170155 25.7349042,26.5769869 25.6920166,26.3251953 C25.649129,26.0734037 25.6276855,25.7967137 25.6276855,25.4951172 Z M30.5957031,27.989502 L30.5957031,20.5187988 L33.7126465,20.5187988 L33.7126465,21.5563965 L32.1064453,21.5563965 L32.1064453,23.5900879 L33.2436523,23.5900879 L33.2436523,24.6525879 L32.1064453,24.6525879 L32.1064453,26.9519043 L33.7126465,26.9519043 L33.7126465,27.989502 L30.5957031,27.989502 Z" id="BEST-CHOICE" fill="#FFFFFF"></path>
        </g>
    </g>
</svg>