<?xml version="1.0" encoding="UTF-8" standalone="no"?>
<svg width="41px" height="42px" viewBox="0 0 41 42" version="1.1" xmlns="http://www.w3.org/2000/svg" xmlns:xlink="http://www.w3.org/1999/xlink">
    <!-- Generator: Sketch 41.1 (35376) - http://www.bohemiancoding.com/sketch -->
    <title>Group</title>
    <desc>Created with Sketch.</desc>
    <defs></defs>
    <g id="Page-1" stroke="none" stroke-width="1" fill="none" fill-rule="evenodd">
        <g id="Group">
            <g id="descarga" fill="#F5C400">
                <path d="M14.257,14.479 L13.741,14.479 L14.516,12.26 L15.152,12.26 C15.62,12.26 15.732,12.524 15.522,13.124 L15.358,13.592 C15.125,14.261 14.75,14.479 14.257,14.479 Z M21.426,22.048 C21.006,22.048 20.662,22.277 20.452,22.876 L18.867,27.408 C18.657,28.009 18.842,28.236 19.262,28.236 C19.682,28.236 20.025,28.007 20.235,27.408 L21.82,22.876 C22.029,22.277 21.846,22.048 21.426,22.048 Z M14.15,17.429 L14.405,16.698 C14.678,15.918 14.509,15.678 13.91,15.678 L13.322,15.678 L12.421,18.257 L13.177,18.257 C13.62,18.255 13.931,18.051 14.15,17.429 Z M40.521,24.852 C41.014,25.61 41.137,26.55 40.858,27.413 C40.58,28.274 39.926,28.962 39.082,29.286 L34.729,30.959 L34.484,35.614 C34.436,36.518 33.983,37.352 33.252,37.885 C32.52,38.418 31.586,38.59 30.713,38.357 L26.209,37.15 L23.273,40.773 C22.704,41.476 21.847,41.884 20.942,41.884 C20.037,41.884 19.181,41.476 18.611,40.773 L15.676,37.15 L11.173,38.357 C10.298,38.59 9.366,38.419 8.633,37.885 C7.901,37.353 7.448,36.519 7.4,35.614 L7.155,30.959 L2.803,29.286 C1.958,28.963 1.305,28.274 1.026,27.413 C0.746,26.553 0.87,25.612 1.363,24.852 L3.902,20.941 L1.363,17.031 C0.87,16.272 0.746,15.331 1.026,14.47 C1.305,13.609 1.958,12.921 2.803,12.596 L7.155,10.924 L7.401,6.27 C7.448,5.366 7.901,4.533 8.633,4 C9.365,3.469 10.3,3.297 11.172,3.529 L15.675,4.734 L18.611,1.111 C19.181,0.408 20.037,0 20.942,0 C21.847,0 22.704,0.408 23.273,1.111 L26.209,4.734 L30.713,3.528 C31.588,3.295 32.521,3.467 33.252,3.999 C33.982,4.531 34.437,5.365 34.483,6.269 L34.728,10.924 L39.082,12.596 C39.926,12.92 40.58,13.609 40.857,14.47 C41.137,15.33 41.013,16.271 40.52,17.031 L37.981,20.941 L40.521,24.852 Z M27.969,12.258 L25.451,19.454 L26.77,19.454 L29.287,12.258 L30.668,12.258 L31.086,11.059 L27.01,11.059 L26.59,12.258 L27.969,12.258 L27.969,12.258 Z M22.033,13.074 C21.195,15.472 23.659,15.796 23.055,17.523 C22.845,18.123 22.505,18.339 22.085,18.339 C21.665,18.339 21.478,18.123 21.688,17.523 L21.896,16.923 L20.649,16.923 L20.469,17.439 C20,18.782 20.403,19.549 21.698,19.549 C22.993,19.549 23.933,18.781 24.403,17.439 C25.244,15.04 22.777,14.716 23.381,12.989 C23.592,12.389 23.912,12.161 24.33,12.161 C24.75,12.161 24.91,12.39 24.699,12.989 L24.58,13.337 L25.825,13.337 L25.92,13.073 C26.39,11.73 25.998,10.962 24.715,10.962 C23.432,10.962 22.504,11.732 22.033,13.074 Z M18.49,11.06 L15.554,19.456 L19.152,19.456 L19.571,18.257 L17.292,18.257 L18.152,15.798 L19.963,15.798 L20.382,14.599 L18.571,14.599 L19.388,12.26 L21.667,12.26 L22.087,11.061 L18.49,11.06 L18.49,11.06 Z M10.682,19.456 L12.757,19.456 C14.076,19.456 15.003,18.76 15.456,17.465 L15.695,16.781 C16.006,15.893 15.952,15.258 15.341,14.982 C16.025,14.706 16.482,14.154 16.784,13.291 L16.888,12.991 C17.341,11.696 16.976,11.06 15.609,11.06 L13.618,11.06 L10.682,19.456 Z M11.756,27.326 L12.146,26.211 L10.898,26.211 L10.479,27.41 C10.269,28.01 9.93,28.226 9.51,28.226 C9.091,28.226 8.902,28.008 9.112,27.41 L10.697,22.877 C10.907,22.277 11.251,22.049 11.671,22.049 C12.091,22.049 12.275,22.278 12.065,22.877 L11.751,23.775 L12.999,23.775 L13.284,22.961 C13.754,21.617 13.35,20.85 12.055,20.85 C10.76,20.85 9.819,21.617 9.349,22.961 L7.823,27.326 C7.353,28.67 7.757,29.437 9.052,29.437 C10.346,29.438 11.287,28.67 11.756,27.326 Z M16.019,29.34 L18.955,20.944 L17.612,20.944 L16.354,24.542 L14.854,24.542 L16.112,20.944 L14.793,20.944 L11.857,29.34 L13.176,29.34 L14.434,25.74 L15.934,25.74 L14.676,29.34 L16.019,29.34 Z M21.585,27.326 L23.109,22.961 C23.581,21.617 23.14,20.85 21.843,20.85 C20.549,20.85 19.572,21.617 19.103,22.961 L17.577,27.326 C17.107,28.67 17.547,29.437 18.842,29.437 C20.137,29.437 21.114,28.67 21.585,27.326 Z M25.987,20.944 L24.669,20.944 L21.733,29.34 L23.051,29.34 L25.987,20.944 Z M28.447,27.326 C29.286,24.928 26.821,24.603 27.426,22.877 C27.635,22.277 27.955,22.049 28.373,22.049 C28.793,22.049 28.953,22.278 28.742,22.877 L28.623,23.225 L29.869,23.225 L29.963,22.961 C30.433,21.617 30.041,20.85 28.758,20.85 C27.475,20.85 26.547,21.617 26.075,22.961 C25.236,25.359 27.702,25.684 27.097,27.41 C26.887,28.01 26.547,28.226 26.127,28.226 C25.709,28.226 25.52,28.008 25.73,27.41 L25.939,26.81 L24.692,26.81 L24.512,27.326 C24.041,28.67 24.445,29.437 25.741,29.437 C27.037,29.437 27.978,28.67 28.447,27.326 Z M35.034,20.944 L31.435,20.944 L28.5,29.34 L32.099,29.34 L32.518,28.143 L30.24,28.143 L31.099,25.684 L32.91,25.684 L33.33,24.485 L31.518,24.485 L32.336,22.147 L34.612,22.147 L35.034,20.944 Z" id="Shape"></path>
            </g>
            <polygon id="Path-2" fill="#F5C400" points="11.09828 8.97713178 7.73074128 19.3477471 6.69050388 27.4646076 8.86959787 30.4738857 16.9625 33.6932171 28.1872578 31.6127422 33.4686773 29.6871609 35.2454942 26.13297 36.5331153 19.9979651 32.02672 9.02059109"></polygon>
            <text id="BEST-CHOICE" font-family="Oswald-Bold, Oswald" font-size="8.5" font-weight="bold" line-spacing="8.5" fill="#FFFFFF">
                <tspan x="12.6567383" y="21.5">BEST</tspan>
                <tspan x="8" y="30">CHOICE</tspan>
            </text>
        </g>
    </g>
</svg>