<?xml version="1.0" encoding="UTF-8"?>
<svg width="225px" height="38px" viewBox="0 0 225 38" version="1.1" xmlns="http://www.w3.org/2000/svg" xmlns:xlink="http://www.w3.org/1999/xlink">
    <!-- Generator: Sketch 41 (35326) - http://www.bohemiancoding.com/sketch -->
    <title>shopify-partner</title>
    <desc>Created with Sketch.</desc>
    <defs>
        <polygon id="path-1" points="0.104166667 30.3916667 25.94625 30.3916667 25.94625 0.187083333 0.104166667 0.187083333"></polygon>
    </defs>
    <g id="Page-1" stroke="none" stroke-width="1" fill="none" fill-rule="evenodd">
        <g id="shopify-partner">
            <path d="M136.938333,28.5383333 C137.646667,29.0858333 138.676667,29.4075 139.931667,29.4075 C144.019583,29.4075 146.851667,23.6141667 146.851667,19.655 C146.851667,17.8204167 146.14375,15.7604167 143.858333,15.7604167 C141.67,15.7604167 138.805,18.5608333 137.93625,23.2275 L136.938333,28.5383333 Z M134.041667,36.9533333 L137.131667,20.34375 C137.517917,18.3158333 137.8075,16.5370833 138.000417,14.8704167 L139.32,14.8704167 L138.8375,18.20375 L138.901667,18.20375 C140.285833,16.1204167 142.217083,14.6483333 144.277083,14.6483333 C147.205833,14.6483333 148.3,17.07125 148.3,19.6141667 C148.3,24.8279167 144.7275,30.8245833 139.802917,30.8245833 C138.290417,30.8245833 137.2925,30.2870833 136.712917,30.2870833 L136.64875,30.2870833 L135.425833,36.9533333 L134.041667,36.9533333 L134.041667,36.9533333 Z" id="Fill-1" fill="#0A0B09"></path>
            <path d="M160.853333,15.9858333 C160.499167,15.8570833 159.952083,15.7604167 158.98625,15.7604167 C154.544583,15.7604167 151.068333,20.7170833 151.03625,25.5775 C151.004167,27.605 151.583333,29.4075 153.675417,29.4075 C156.18625,29.4075 159.01875,25.6416667 159.75875,21.6504167 L160.853333,15.9858333 Z M158.793333,30.7033333 C158.760833,29.4533333 158.954167,28.2033333 159.179583,26.5370833 L159.115,26.5370833 C157.344583,29.8704167 155.381667,30.8208333 153.35375,30.8208333 C151.004167,30.8208333 149.587917,28.7945833 149.587917,26.02625 C149.587917,20.7479167 153.35375,14.585 159.340417,14.585 C160.434583,14.585 161.657917,14.7216667 162.4625,15.0116667 L160.820833,23.5016667 C160.27375,26.3983333 160.080833,29.0370833 160.145,30.7033333 L158.793333,30.7033333 L158.793333,30.7033333 Z" id="Fill-2" fill="#0A0B09"></path>
            <path d="M163.460417,30.7033333 L165.42375,20.1154167 C165.81,18.1520833 166.035417,16.5370833 166.164167,14.8704167 L167.419583,14.8704167 C167.322917,16.1204167 167.194167,16.95375 167.000833,18.6204167 L167.065417,18.6204167 C167.99875,16.5370833 169.54375,14.7279167 171.475,14.7279167 C171.667917,14.7279167 171.893333,14.665 172.054167,14.665 L171.764583,16.0979167 C171.635833,16.0658333 171.475,16.0420833 171.249583,16.0420833 C169.221667,16.0420833 166.96875,19.285 166.325,22.6645833 L164.844583,30.7033333 L163.460417,30.7033333" id="Fill-3" fill="#0A0B09"></path>
            <path d="M178.394583,11.485 L177.71875,14.8704167 L181.355833,14.8704167 L181.098333,16.1204167 L177.46125,16.1204167 L175.755417,25.2904167 C175.562083,26.3204167 175.433333,27.1079167 175.433333,27.9441667 C175.433333,28.8454167 175.852083,29.3841667 176.8175,29.3841667 C177.3325,29.3841667 177.654167,29.3475 177.944167,29.2508333 L178.040417,30.3754167 C177.622083,30.50375 177.075,30.5995833 176.527917,30.5995833 C174.692917,30.5995833 173.985,29.3758333 173.985,28.08875 C173.985,27.2516667 174.081667,26.4816667 174.339167,25.2908333 L176.077083,16.1204167 L173.85625,16.1204167 L174.081667,14.8704167 L176.334583,14.8704167 L176.849583,12.0991667 L178.394583,11.485" id="Fill-4" fill="#0A0B09"></path>
            <path d="M181.1625,30.7033333 L183.2225,19.6004167 C183.576667,17.7658333 183.769583,16.1204167 183.898333,14.8704167 L185.217917,14.8704167 L184.7675,18.20375 L184.831667,18.20375 C186.18375,16.1204167 188.115,14.6325 190.239167,14.6325 C191.751667,14.6325 193.683333,15.5504167 193.683333,18.4791667 C193.683333,19.2520833 193.554583,20.1979167 193.393333,21.035 L191.623333,30.7033333 L190.239167,30.7033333 L192.041667,21.01125 C192.170417,20.3033333 192.267083,19.46375 192.267083,18.6595833 C192.267083,17.05 191.623333,15.8420833 189.724167,15.8420833 C187.664167,15.8420833 184.735417,18.5895833 184.059167,22.3233333 L182.546667,30.7033333 L181.1625,30.7033333" id="Fill-5" fill="#0A0B09"></path>
            <path d="M205.519167,17.9491667 C205.519167,16.5329167 204.525833,15.7604167 203.077083,15.7604167 C200.695417,15.7604167 198.585,18.3354167 197.619583,21.6829167 C201.6425,21.715 205.519167,21.0391667 205.519167,17.98125 L205.519167,17.9491667 Z M204.851667,29.4395833 C204.047083,29.9870833 202.566667,30.59875 200.635417,30.59875 C197.030417,30.59875 195.775,27.76625 195.775,24.8045833 C195.775,20.3629167 198.897083,14.5375 203.306667,14.5375 C205.849583,14.5375 206.911667,16.17875 206.911667,17.9170833 C206.911667,21.84375 202.405833,22.9379167 197.352083,22.9058333 C197.19125,23.6141667 197.159167,25.6416667 197.480833,26.7683333 C198.028333,28.50625 199.219167,29.3754167 200.860833,29.3754167 C202.566667,29.3754167 203.725417,28.76375 204.433333,28.3454167 L204.851667,29.4395833 L204.851667,29.4395833 Z" id="Fill-6" fill="#0A0B09"></path>
            <path d="M207.845417,30.7033333 L209.80875,20.1154167 C210.195,18.1520833 210.420417,16.5370833 210.549167,14.8704167 L211.804167,14.8704167 C211.7075,16.1204167 211.57875,16.95375 211.385833,18.6204167 L211.450417,18.6204167 C212.38375,16.5370833 213.92875,14.7279167 215.859583,14.7279167 C216.052917,14.7279167 216.278333,14.665 216.439167,14.665 L216.149583,16.0979167 C216.020833,16.0658333 215.859583,16.0420833 215.634583,16.0420833 C213.606667,16.0420833 211.35375,19.285 210.71,22.6645833 L209.229583,30.7033333 L207.845417,30.7033333" id="Fill-7" fill="#0A0B09"></path>
            <path d="M215.95625,28.50625 C216.503333,28.9245833 217.533333,29.3754167 218.66,29.3754167 C220.687917,29.3754167 222.071667,27.9266667 222.071667,26.1566667 C222.071667,24.6116667 221.427917,23.6783333 219.979583,22.745 C218.434583,21.7470833 217.597917,20.3629167 217.597917,18.915 C217.597917,16.5008333 219.56125,14.5375 222.297083,14.5375 C223.359167,14.5375 224.389167,14.8591667 224.84,15.2133333 L224.324583,16.4041667 C223.842083,16.1145833 223.037083,15.7604167 222.13625,15.7604167 C220.269167,15.7604167 219.014167,17.08 219.014167,18.6570833 C219.014167,20.1058333 219.850833,20.9104167 221.10625,21.7795833 C222.586667,22.7770833 223.487917,24.1933333 223.487917,25.7704167 C223.487917,28.8925 221.202917,30.59875 218.53125,30.59875 C217.147083,30.59875 215.924167,30.0833333 215.409167,29.665 L215.95625,28.50625" id="Fill-8" fill="#0A0B09"></path>
            <path d="M12.0404167,12.5620833 C12.0108333,12.5620833 11.98,12.5595833 11.94875,12.5554167 C11.5958333,12.5058333 11.3004167,12.1866667 11.2891667,11.8420833 C11.2779167,11.505 11.0725,3.56541667 15.7283333,1.75958333 C16.9033333,1.30375 17.9708333,1.40625 18.9004167,2.06416667 C20.0183333,2.85541667 20.8333333,4.4175 21.3229167,6.70666667 C21.6691667,8.32541667 21.725,9.72 21.7275,9.77833333 C21.7404167,10.1233333 21.4645833,10.3641667 21.1116667,10.31625 C20.7583333,10.26875 20.46125,9.95041667 20.4483333,9.60583333 C20.3925,8.1675 19.8945833,4.18583333 18.2804167,3.04375 C17.7633333,2.67833333 17.1375,2.64583333 16.3675,2.94458333 C12.3766667,4.4925 12.5658333,11.9466667 12.5683333,12.0216667 C12.5783333,12.3354167 12.34875,12.5620833 12.0404167,12.5620833" id="Fill-9" fill="#8DB849"></path>
            <path d="M21.9820833,4.75041667 L3.975,10.32625 C3.975,10.32625 3.20208333,10.5458333 3.02083333,10.7633333 C2.82166667,11.0020833 2.78333333,11.6458333 2.78333333,11.6458333 L0,33.1158333 L20.8958333,37.0308333 L22.505,4.7325 C22.2745833,4.68708333 22.0391667,4.73708333 21.9820833,4.75041667" id="Fill-10" fill="#8DB849"></path>
            <path d="M28.2183333,7.52583333 C28.2183333,7.52583333 28.1879167,7.36083333 28.0941667,7.30041667 C28.0008333,7.24 27.89875,7.22833333 27.89875,7.22833333 L24.9491667,7.00875 L22.77875,4.85208333 C22.6975,4.78916667 22.6020833,4.7525 22.505,4.73333333 L20.8958333,37.0316667 L32.2179167,34.58125 L28.2183333,7.52583333" id="Fill-11" fill="#5B873D"></path>
            <g id="Group-15" transform="translate(4.583333, 0.000000)">
                <path d="M9.96083333,22.6945833 C9.64083333,22.26375 9.26791667,21.8845833 8.87416667,21.5491667 C8.48583333,21.2183333 8.07791667,20.93 7.67833333,20.6741667 C7.39375,20.49625 7.14666667,20.3245833 6.9375,20.1570833 C6.72958333,19.99 6.55833333,19.82625 6.42291667,19.6620833 C6.28875,19.4983333 6.18958333,19.3341667 6.12666667,19.1658333 C6.06333333,18.9983333 6.03541667,18.8258333 6.04333333,18.64625 C6.05375,18.40375 6.1075,18.1841667 6.19958333,17.9904167 C6.2925,17.7958333 6.42375,17.6266667 6.59,17.485 C6.75666667,17.3425 6.95916667,17.2283333 7.1925,17.145 C7.42791667,17.06125 7.695,17.00875 7.99041667,16.99125 C8.31166667,16.9720833 8.62208333,16.9820833 8.91708333,17.0125 C9.21583333,17.0433333 9.49875,17.0954167 9.76166667,17.16 C10.0270833,17.225 10.2720833,17.3025 10.4920833,17.3841667 C10.71375,17.4666667 10.91,17.5525 11.0754167,17.6333333 L12.4691667,13.48 C12.2625,13.3741667 12.0108333,13.2770833 11.7204167,13.195 C11.4329167,13.11375 11.1079167,13.0475 10.7516667,13.0020833 C10.4,12.9570833 10.0179167,12.9329167 9.61166667,12.935 C9.21125,12.9366667 8.7875,12.96375 8.34625,13.0216667 C7.395,13.14625 6.53625,13.4095833 5.78541667,13.7845833 C5.05541667,14.1491667 4.4225,14.6229167 3.90166667,15.1841667 C3.39125,15.7345833 2.98416667,16.3745833 2.69708333,17.0870833 C2.4125,17.7920833 2.2425,18.5758333 2.20583333,19.4254167 C2.18333333,19.9333333 2.23458333,20.4004167 2.345,20.83125 C2.45583333,21.2645833 2.6275,21.6633333 2.84541667,22.0316667 C3.06541667,22.4045833 3.33375,22.7470833 3.63666667,23.06375 C3.94333333,23.3845833 4.28583333,23.68 4.65,23.95125 C4.94666667,24.1683333 5.19708333,24.3725 5.40583333,24.5708333 C5.61625,24.7704167 5.78333333,24.9633333 5.91166667,25.1558333 C6.04041667,25.3495833 6.12958333,25.5420833 6.18416667,25.74125 C6.23916667,25.9404167 6.25916667,26.1458333 6.24958333,26.36375 C6.24,26.5816667 6.19333333,26.7854167 6.11041667,26.9658333 C6.0275,27.14625 5.90875,27.3033333 5.75583333,27.4270833 C5.60375,27.5504167 5.41791667,27.6408333 5.19958333,27.6904167 C4.98333333,27.7391667 4.73625,27.7475 4.45958333,27.7066667 C4.14625,27.6604167 3.83,27.57 3.52291667,27.4520833 C3.22,27.3358333 2.925,27.1929167 2.64916667,27.03875 C2.37625,26.88625 2.12166667,26.7229167 1.89541667,26.56375 C1.67083333,26.4058333 1.47375,26.2516667 1.31291667,26.1154167 L0.35875,29.2820833 C0.516666667,29.4845833 0.717916667,29.6866667 0.955,29.8820833 C1.19458333,30.0795833 1.47083333,30.2708333 1.77666667,30.44875 C2.08625,30.6291667 2.42625,30.79625 2.78875,30.9425 C3.15666667,31.09125 3.5475,31.2191667 3.95333333,31.3170833 C3.96,31.31875 3.96708333,31.3204167 3.97375,31.3216667 C3.98041667,31.32375 3.9875,31.3254167 3.99416667,31.3266667 C4.00125,31.3283333 4.00791667,31.3295833 4.015,31.3308333 C4.02125,31.3325 4.02833333,31.3341667 4.03541667,31.3358333 C4.9,31.5266667 5.73875,31.5733333 6.52083333,31.46875 C7.32666667,31.3608333 8.06708333,31.0929167 8.70625,30.66125 C9.36,30.2195833 9.9025,29.61 10.29625,28.8345833 C10.6945833,28.04875 10.935,27.1020833 10.9829167,26.0033333 C11.0120833,25.33125 10.9191667,24.7216667 10.73625,24.16875 C10.5541667,23.6204167 10.285,23.13125 9.96083333,22.6945833" id="Fill-12" fill="#FFFFFF"></path>
                <path d="M3.0675,11.4666667 C3.0375,11.4666667 3.00708333,11.4645833 2.97666667,11.46 C2.63208333,11.4104167 2.39333333,11.09125 2.44291667,10.7470833 C2.49125,10.41 3.68583333,2.47041667 8.66,0.664166667 C9.91541667,0.208333333 10.9645833,0.31125 11.7783333,0.969166667 C12.7566667,1.76 13.2958333,3.32208333 13.3820833,5.61166667 C13.4429167,7.23041667 13.2529167,8.62458333 13.245,8.68333333 C13.1970833,9.02833333 12.87875,9.26875 12.5341667,9.22125 C12.1891667,9.17333333 11.94875,8.85541667 11.99625,8.51041667 C12.1941667,7.0725 12.3983333,3.09083333 10.9854167,1.94875 C10.5329167,1.58333333 9.9125,1.55083333 9.09,1.84916667 C4.82625,3.39708333 3.70125,10.85125 3.69041667,10.92625 C3.645,11.2404167 3.37541667,11.4666667 3.0675,11.4666667" id="Fill-14" fill="#8DB849"></path>
            </g>
            <path d="M45.4166667,21.2695833 C44.2875,20.6566667 43.7066667,20.1404167 43.7066667,19.4304167 C43.7066667,18.5270833 44.5133333,17.9466667 45.77125,17.9466667 C46.9329167,17.9466667 47.9329167,18.2691667 48.5458333,18.5595833 L49.5783333,15.3979167 C48.86875,14.9783333 47.5458333,14.6558333 45.8358333,14.6558333 C41.9320833,14.6558333 39.2545833,16.8816667 39.2545833,20.01125 C39.2545833,21.7854167 40.5129167,23.1408333 42.1904167,24.1083333 C43.5454167,24.8825 44.0291667,25.43125 44.0291667,26.2379167 C44.0291667,27.0766667 43.3516667,27.7541667 42.09375,27.7541667 C40.70625,27.78625 39.2545833,27.2054167 38.4479167,26.78625 L37.35125,29.9479167 C38.19,30.5283333 39.9,31.0125 41.73875,31.0445833 C45.7391667,31.0770833 48.6104167,29.0766667 48.6104167,25.5283333 C48.6104167,23.6245833 47.15875,22.2695833 45.4166667,21.2695833" id="Fill-16" fill="#1A1918"></path>
            <path d="M61.35375,14.62375 C59.3858333,14.62375 57.8375,15.5591667 56.64375,16.97875 L56.5791667,16.94625 L58.2891667,8.01 L53.8370833,8.01 L49.51375,30.7545833 L53.96625,30.7545833 L55.45,22.9795833 C56.0308333,20.0433333 57.5470833,18.2370833 58.9666667,18.2370833 C59.9666667,18.2370833 60.3541667,18.9141667 60.3541667,19.8825 C60.3541667,20.495 60.2891667,21.2370833 60.1604167,21.8504167 L58.4829167,30.7545833 L62.935,30.7545833 L64.6770833,21.56 C64.8704167,20.5920833 64.9995833,19.4304167 64.9995833,18.65625 C64.9995833,16.14 63.6766667,14.62375 61.35375,14.62375" id="Fill-17" fill="#1A1918"></path>
            <path d="M72.8716667,27.6575 C71.3554167,27.6575 70.71,26.3666667 70.71,24.75375 C70.71,22.205 72.0329167,18.0433333 74.4525,18.0433333 C76.0333333,18.0433333 76.5495833,19.3983333 76.5495833,20.7208333 C76.5495833,23.4633333 75.2266667,27.6575 72.8716667,27.6575 Z M75.0654167,14.62375 C69.71,14.62375 66.16125,19.4629167 66.16125,24.8504167 C66.16125,28.3025 68.2904167,31.0770833 72.2908333,31.0770833 C77.5495833,31.0770833 81.0983333,26.3666667 81.0983333,20.85 C81.0983333,17.65625 79.2270833,14.62375 75.0654167,14.62375 L75.0654167,14.62375 Z" id="Fill-18" fill="#1A1918"></path>
            <path d="M88.22875,27.7216667 C87.4220833,27.7216667 86.87375,27.46375 86.3895833,27.0766667 L87.1316667,22.915 C87.6479167,20.1404167 89.0995833,18.30125 90.6483333,18.30125 C92.0033333,18.30125 92.4225,19.5595833 92.4225,20.7533333 C92.4225,23.6245833 90.7125,27.7216667 88.22875,27.7216667 Z M92.4870833,14.62375 C90.7125,14.62375 88.9708333,15.59125 87.7766667,17.2691667 L87.7125,17.2691667 L87.9704167,14.8816667 L84.0345833,14.8816667 C83.8408333,16.4945833 83.48625,18.9466667 83.13125,20.7854167 L80.0341667,37.0779167 L84.48625,37.0779167 L85.7120833,30.49625 L85.80875,30.49625 C86.325,30.81875 87.3254167,31.0770833 88.4220833,31.0770833 C93.64875,31.0770833 97.0683333,25.7216667 97.0683333,20.3016667 C97.0683333,17.30125 95.7454167,14.62375 92.4870833,14.62375 L92.4870833,14.62375 Z" id="Fill-19" fill="#1A1918"></path>
            <path d="M103.424167,8.23583333 C102.005,8.23583333 100.875833,9.365 100.875833,10.8166667 C100.875833,12.1395833 101.714167,13.0429167 102.9725,13.0429167 L103.037083,13.0429167 C104.424167,13.0429167 105.618333,12.1070833 105.650417,10.4616667 C105.650417,9.17125 104.779167,8.23583333 103.424167,8.23583333" id="Fill-20" fill="#1A1918"></path>
            <polyline id="Fill-21" fill="#1A1918" points="97.1975 30.7545833 101.65 30.7545833 104.6825 14.9783333 100.198333 14.9783333 97.1975 30.7545833"></polyline>
            <g id="Group-25" transform="translate(105.416667, 7.500000)">
                <mask id="mask-2" fill="white">
                    <use xlink:href="#path-1"></use>
                </mask>
                <g id="Clip-23"></g>
                <path d="M10.5895833,7.44625 L7.4925,7.44625 L7.65375,6.70416667 C7.91166667,5.18791667 8.815,3.83291667 10.2991667,3.83291667 C10.8795833,3.83291667 11.3316667,3.92958333 11.7183333,4.05875 L12.5895833,0.574583333 C12.0733333,0.34875 11.2670833,0.187083333 10.17,0.187083333 C8.58916667,0.187083333 7.00833333,0.639166667 5.81458333,1.67125 C4.29833333,2.96166667 3.58875,4.83291667 3.23375,6.70416667 L3.10458333,7.44625 L1.04,7.44625 L0.394583333,10.80125 L2.45958333,10.80125 L0.104166667,23.2545833 L4.55666667,23.2545833 L6.91166667,10.80125 L9.97666667,10.80125 L10.5895833,7.44625" id="Fill-22" fill="#1A1918" mask="url(#mask-2)"></path>
                <path d="M21.3004167,7.47833333 L18.5904167,14.54375 C17.945,16.25375 17.6225,17.25375 17.2675,18.3183333 L17.2033333,18.3183333 C17.13875,17.28625 17.0095833,16.1566667 16.81625,14.57625 L16.10625,7.47833333 L11.4283333,7.47833333 L14.10625,21.9641667 C14.1704167,22.2866667 14.1383333,22.48 14.0091667,22.7058333 C13.4929167,23.70625 12.6220833,24.6741667 11.5895833,25.38375 C10.7508333,25.9966667 9.81541667,26.38375 9.07333333,26.6420833 L10.2991667,30.4166667 C11.2025,30.2229167 13.07375,29.4808333 14.6545833,27.9970833 C16.6870833,26.0933333 18.5583333,23.1575 20.49375,19.1570833 L25.94625,7.47833333 L21.3004167,7.47833333" id="Fill-24" fill="#1A1918" mask="url(#mask-2)"></path>
            </g>
        </g>
    </g>
</svg>